<svg xmlns="http://www.w3.org/2000/svg" viewBox="0 0 493.2 123.5" xml:space="preserve"><path fill="#FFFFFF" d="M46.3 120.6h37.3V37.4H46.3v83.2zM0 120.6h37.3V0H0v120.6zM127.873 103.765c0-10.9-8.9-20-19.9-20-10.8 0-19.7 8.9-19.7 20s8.9 19.7 19.7 19.7c10.9.1 19.9-8.7 19.9-19.7M175.682 37.336v48.3c0 4.3-1.7 6.4-5.3 6.4-3.6 0-5.3-2.1-5.3-6.4v-48.3h-37.2v38.9c0 13.7 3.2 24.5 9.7 32.1 8.3 9.9 19.2 14.4 32.9 14.4s24.5-4.5 32.9-14.4c6.4-7.7 9.7-18.4 9.7-32.1v-38.9h-37.4zM289.634 120.537h-2.9v-.1l-17.5-29.3v29.5h-3.3v-35.7h2.9v.1l17.5 29.3v-29.5h3.3v35.7zM319.217 120.537h-3.2v-.1l-11.6-35.6h3.5v.1l9.7 30.4 9.9-30.5h3.5l-.1.3-11.7 35.4zM246.048 120.938c-7.1 0-12-5.1-12-12.4v-23.6h3.3v23.6c0 5.5 3.5 9.2 8.7 9.2s8.7-3.7 8.7-9.2v-23.7h3.3v23.7c0 7.3-4.9 12.4-12 12.4M300.7 120.6h-3.3V84.8h3.3v35.8zM418.5 120.6h-3.3V84.8h3.3v35.8zM435.05 120.541h-3.3v-32.5h-9.7v-3.2h22.8v3.2h-9.7v32.5zM468.219 120.541h-20v-35.7h19.2v3.2h-15.9v12.9h12v2.9h-12v13.3h16.7v3.4zM354.487 120.537h-20v-35.7h19.5v3.2h-16.3v12.9h12v2.9h-12v13.3h16.8v3.4zM483.297 120.541h-3.3v-32.5h-9.3v-3.2h22.5v3.2h-9.9v32.5zM398.221 101.196c-4.7-1.2-9.1-2.3-9.1-7.3 0-4.1 2.8-6.5 7.9-6.5 3.9 0 8 2.3 8.3 8.4h3.3c-.1-8.5-6-11.6-11.3-11.6-7.1 0-11.2 3.7-11.2 9.7 0 7.3 5.9 8.9 11.1 10.1 4.4 1.2 8.7 2.4 8.7 7.1 0 5.1-4.4 6.9-8.5 6.9-5.5 0-8.7-3.6-8.7-9.5v-.1h-3.2v.1c0 7.6 4.7 12.7 11.9 12.7s11.9-4 11.9-10.1c-.3-7.2-5.8-8.5-11.1-9.9M291.527 72.963h-2.9v-.1l-17.5-29.3v29.5h-3.3v-35.7h2.9v.1l17.5 29.3v-29.5h3.3v35.7zM416.835 72.963h-2.9v-.1l-17.5-29.3v29.5h-3.3v-35.7h2.9v.1l17.5 29.3v-29.5h3.3v35.7zM253.451 72.963h-18.8v-35.7h3.3v32.5h15.5v3.2zM260.5 73h-3.2V37.2h3.3V73h-.1zM357.445 72.963h-3.3v-35.7h10.3c7.3 0 12.1 4.8 12.1 12.3v1.3c0 7.3-4.7 12-12.1 12l-6.9-.1v10.2zm0-13.4h6.9c5.6 0 8.9-3.3 8.9-8.8v-1.2c0-5.7-3.3-8.9-8.9-8.9h-6.9v18.9zM385.5 73h-3.3V37.2h3.3V73zM435.258 73.488c-7.1 0-12-5.1-12-12.4v-11.9c0-7.3 4.9-12.4 12-12.4 6.9 0 11.9 4.9 12 12.1v.1h-3.3v-.1c-.1-5.3-3.6-8.9-8.7-8.9-5.5 0-8.7 3.7-8.7 10v11.1c0 5.5 3.5 9.2 8.7 9.2s8.7-3.7 8.7-9.2v-1.9h-8.8v-2.9h12.1v4.8c0 7.3-4.9 12.4-12 12.4M464.327 73.614c-7.2 0-11.9-4.9-11.9-12.7v-.1h3.2v.1c0 6 3.2 9.6 8.7 9.6 4.1 0 8.5-1.9 8.5-6.9 0-4.7-4.3-5.7-8.8-6.9-5.2-1.3-11.1-2.8-11.1-10.1 0-6 4.4-9.7 11.5-9.7 5.5 0 11.5 3.2 11.5 12v.1h-3.3v-.1c0-6.5-4.3-8.8-8.3-8.8-5.1 0-8.1 2.4-8.1 6.5 0 4.9 4.4 6.1 9.1 7.3 5.3 1.3 10.8 2.7 10.8 9.7.1 6.1-4.5 10-11.8 10M323.016 72.963h-3.9l-12.4-16.5h-3.7v16.5h-3.3v-35.7h3.3v16h3.7l10.5-16h3.7l-11.6 17.6 13.7 18.1zM335.606 73.364c-7.1 0-12-5.1-12-12.4v-11.7c0-7.3 4.9-12.5 12-12.5s12 5.2 12 12.5v11.7c0 7.4-4.9 12.4-12 12.4m0-33.4c-5.2 0-8.7 3.7-8.7 9.2v12c0 5.5 3.5 9.2 8.7 9.2 5.2 0 8.7-3.7 8.7-9.2v-11.9c0-5.6-3.5-9.3-8.7-9.3m4.6-4.7c-1.1 0-2-.9-2-2s.9-2 2-2 2 .9 2 2-1 2-2 2m-9.1 0c-1.1 0-2-.9-2-2s.9-2 2-2 2 .9 2 2-.9 2-2 2M381.845 120.541h-4l-8.5-11.2h-6.7v11.2h-3.3v-35.7h10.4c7.5 0 12 4.5 12 11.7v1.3c0 5.9-3.3 9.9-9.1 10.8l9.2 11.9zm-19.2-14.4h6.8c5.6 0 8.9-3.1 8.9-8.3v-1.3c0-5.5-3.2-8.4-8.9-8.4h-6.8v18z"/></svg>