<?xml version="1.0" encoding="utf-8"?>
<!-- Generator: Adobe Illustrator 16.0.0, SVG Export Plug-In . SVG Version: 6.00 Build 0)  -->
<!DOCTYPE svg PUBLIC "-//W3C//DTD SVG 1.1//EN" "http://www.w3.org/Graphics/SVG/1.1/DTD/svg11.dtd">
<svg version="1.1" id="Layer_1" xmlns="http://www.w3.org/2000/svg" xmlns:xlink="http://www.w3.org/1999/xlink" x="0px" y="0px"
	 width="612px" height="792px" viewBox="0 0 612 792" enable-background="new 0 0 612 792" xml:space="preserve">
<path d="M305.996,702.169c5.106,0,9.983-2.104,13.655-5.604l191.231-189.318c7.555-7.478,7.535-19.584,0-27.042
	c-7.535-7.479-19.775-7.479-27.311,0l-158.26,156.69V109.294c0-10.558-8.645-19.125-19.316-19.125
	c-10.671,0-19.315,8.567-19.315,19.125v527.582l-158.26-156.672c-7.535-7.479-19.775-7.459-27.311,0
	c-7.535,7.478-7.535,19.584,0,27.042l191.231,189.318C295.956,700.141,300.929,702.111,305.996,702.169L305.996,702.169z"/>
</svg>
